<?xml version="1.0" encoding="UTF-8"?>
<svg width="32" height="32" version="1.1" viewBox="0 0 32 32" xmlns="http://www.w3.org/2000/svg">
 <path d="m16 0c-8.8366 0-16 7.1634-16 16 0 7.9861 5.851 14.605 13.5 15.806v-11.181h-4.0625v-4.625h4.0625v-3.525c0-4.01 2.3887-6.225 6.0434-6.225 1.7505 0 3.5815 0.31252 3.5815 0.31252v3.9375h-2.0175c-0.4969 0-0.90833 0.0771-1.2459 0.2125-0.33762 0.1354-0.60144 0.32911-0.80315 0.56236-0.40341 0.4665-0.55833 1.0911-0.55833 1.7238v3.0013h4.4375l-0.70935 4.625h-3.7281v11.181c7.649-1.2003 13.5-7.8196 13.5-15.806 0-8.8366-7.1635-16-16-16z"/>
</svg>
