<?xml version="1.0" encoding="UTF-8"?>
<svg width="32" height="32" version="1.1" viewBox="0 0 32 32" xmlns="http://www.w3.org/2000/svg" xmlns:xlink="http://www.w3.org/1999/xlink">
 <path d="m12.5 0v4.9375l-4.2754-2.4688-3.5 6.0625 4.2754 2.4688-4.2754 2.4688 3.5 6.0625 4.2754-2.4688v4.9375h0.62891s1.1493 0.53541 0.42969 1.6641c0 2e-6 -1.5705 3.093-4.1504 6.1211-0.16727 0.19633-0.074019 0.41706-0.041016 0.45312 0.88843 0.97096 3.202 1.7153 6.6328 1.7617 3.4308-0.04637 5.7444-0.79076 6.6328-1.7617 0.033-0.03607 0.12626-0.25679-0.04102-0.45312-2.5799-3.0281-4.1504-6.1211-4.1504-6.1211-0.71965-1.1286 0.42969-1.6641 0.42969-1.6641h0.62891v-4.9375l4.2754 2.4688 3.5-6.0625-4.2754-2.4688 4.2754-2.4688-3.5-6.0625-4.2754 2.4688v-4.9375z"/>
</svg>
