<?xml version="1.0" encoding="UTF-8"?>
<svg width="32" height="32" version="1.1" viewBox="0 0 32 32" xmlns="http://www.w3.org/2000/svg">
 <path d="m30.918 6.303-9.6958 9.6968 9.6958 9.6964c1.4422 1.4428 1.4422 3.7798 0 5.2226-0.7206 0.7206-1.6653 1.0812-2.6096 1.0812-0.94585 0-1.8907-0.36002-2.6107-1.0812l-9.6979-9.6975-9.6972 9.6974c-0.7205 0.7206-1.6653 1.0812-2.6105 1.0812-0.94484 0-1.889-0.36002-2.6102-1.0812-1.4422-1.4421-1.4422-3.7793 0-5.2226l9.6955-9.6964-9.6961-9.6967c-1.4422-1.4422-1.4422-3.7798 0-5.222 1.4419-1.4411 3.7782-1.4411 5.2207 0l9.6976 9.6968 9.6969-9.6968c1.4428-1.4411 3.7793-1.4411 5.2209 0 1.4428 1.4422 1.4428 3.7798 5.51e-4 5.222z"/>
</svg>
