<?xml version="1.0" encoding="UTF-8"?>
<svg width="32" height="32" version="1.1" viewBox="0 0 32 32" xmlns="http://www.w3.org/2000/svg">
 <path d="m28.724 9.4721c0.0195 0.2821 0.0195 0.56421 0.0195 0.84891 0 8.675-6.6041 18.68-18.68 18.68v-0.0052c-3.5673 0.0052-7.0604-1.0166-10.063-2.9432 0.51871 0.0624 1.04 0.0936 1.5626 0.0949 2.9562 0.0026 5.828-0.98932 8.1537-2.8158-2.8093-0.0533-5.2729-1.885-6.1335-4.5592 0.98411 0.1898 1.9981 0.1508 2.964-0.1131-3.0628-0.61881-5.2664-3.3099-5.2664-6.4351v-0.0832c0.91261 0.50831 1.9344 0.79041 2.9796 0.82161-2.8848-1.9279-3.774-5.7656-2.0319-8.766 3.3333 4.1016 8.2512 6.595 13.531 6.8589-0.52911-2.2802 0.1937-4.6697 1.8993-6.2726 2.6442-2.4856 6.803-2.3582 9.2886 0.2847 1.4703-0.2899 2.8795-0.82941 4.1692-1.5938-0.49011 1.5197-1.5158 2.8106-2.886 3.631 1.3013-0.1534 2.5727-0.50181 3.7701-1.0335-0.88141 1.3208-1.9916 2.4713-3.2761 3.4009z"/>
</svg>
