<?xml version="1.0" encoding="UTF-8"?>
<svg width="32" height="32" version="1.1" viewBox="0 0 32 32" xmlns="http://www.w3.org/2000/svg">
 <path d="m27.089 5.8264c-2.0396-0.93584-4.2267-1.6253-6.5135-2.0202-0.04164-0.0076-0.08324 0.01143-0.1047 0.04952-0.28128 0.50029-0.59286 1.153-0.81104 1.6659-2.4596-0.36823-4.9065-0.36823-7.3157 0-0.21823-0.5244-0.54112-1.1657-0.82366-1.6659-0.02145-0.03682-0.06305-0.05587-0.1047-0.04952-2.2855 0.39364-4.4727 1.0831-6.5135 2.0202-0.01767 0.0076-0.03281 0.02033-0.04286 0.03682-4.1485 6.1978-5.285 12.243-4.7275 18.214 0.0025 0.02921 0.01892 0.05715 0.04162 0.07491 2.7371 2.01 5.3884 3.2303 7.9905 4.0392 0.04165 0.01271 0.08577-0.0025 0.11227-0.03682 0.61553-0.84056 1.1642-1.7269 1.6347-2.6589 0.02776-0.05458 0.0013-0.11935-0.05548-0.14094-0.87031-0.33014-1.699-0.73266-2.4962-1.1898-0.06305-0.03682-0.0681-0.12701-0.0101-0.17019 0.16775-0.1257 0.33555-0.2565 0.49573-0.38855 0.02898-0.02411 0.06936-0.02921 0.10344-0.01397 5.237 2.391 10.907 2.391 16.082 0 0.03407-0.0165 0.07446-0.0114 0.1047 0.01271 0.16022 0.13206 0.32798 0.26411 0.49699 0.38981 0.05801 0.04318 0.05422 0.13336-0.0088 0.17019-0.79716 0.46598-1.6259 0.85963-2.4974 1.1885-0.05674 0.02159-0.08198 0.08762-0.05422 0.1422 0.48054 0.93075 1.0292 1.8171 1.6334 2.6577 0.02524 0.03556 0.07063 0.05079 0.11227 0.03808 2.6147-0.80883 5.266-2.0291 8.0031-4.0392 0.02398-0.01776 0.03912-0.04444 0.04164-0.07364 0.66722-6.9026-1.1176-12.898-4.7313-18.214-0.0088-0.01776-0.02393-0.03047-0.0416-0.03808zm-16.396 14.615c-1.5767 0-2.8759-1.4475-2.8759-3.2252s1.274-3.2252 2.8759-3.2252c1.6145 0 2.901 1.4602 2.8758 3.2252 0 1.7777-1.274 3.2252-2.8758 3.2252zm10.633 0c-1.5767 0-2.8758-1.4475-2.8758-3.2252s1.2739-3.2252 2.8758-3.2252c1.6145 0 2.901 1.4602 2.8759 3.2252 0 1.7777-1.2613 3.2252-2.8759 3.2252z"/>
</svg>
