<?xml version="1.0" encoding="UTF-8"?>
<svg width="32" height="32" version="1.1" viewBox="0 0 32 32" xmlns="http://www.w3.org/2000/svg">
 <path d="m0.18751 0.023001a0.18755 0.18755 0 0 0-0.18751 0.18751v31.579a0.18755 0.18755 0 0 0 0.18751 0.18751h3.0001a0.18755 0.18755 0 0 0 0.18751-0.18751v-0.72268a0.18755 0.18755 0 0 0-0.18751-0.18751h-1.9805v-29.759h1.9805a0.18755 0.18755 0 0 0 0.18751-0.18751v-0.72268a0.18755 0.18755 0 0 0-0.18751-0.18751zm28.625 0a0.18755 0.18755 0 0 0-0.18751 0.18751v0.72268a0.18755 0.18755 0 0 0 0.18751 0.18751h1.9805v29.759h-1.9805a0.18755 0.18755 0 0 0-0.18751 0.18751v0.72268a0.18755 0.18755 0 0 0 0.18751 0.18751h3.0001a0.18755 0.18755 0 0 0 0.18751-0.18751v-31.579a0.18755 0.18755 0 0 0-0.18751-0.18751zm-15.036 9.9691c-0.76758 0-1.4591 0.1683-2.0625 0.50391-0.4834 0.26899-0.86667 0.68908-1.2344 1.1329v-1.1446a0.18755 0.18755 0 0 0-0.18751-0.18751h-2.9219a0.18755 0.18755 0 0 0-0.18751 0.18751v11.266a0.18755 0.18755 0 0 0 0.18751 0.18751h3.0939a0.18755 0.18755 0 0 0 0.18751-0.18751v-6.5354c0-0.53372 0.07928-0.95535 0.22267-1.2618 0.15086-0.32203 0.32585-0.5594 0.52346-0.71878 0.20821-0.16778 0.41743-0.27823 0.62892-0.33595 0.23013-0.06286 0.41015-0.08984 0.52736-0.08984 0.4724 0 0.81171 0.08268 1.0196 0.21877 0.22475 0.148 0.37723 0.33677 0.47268 0.57814 0.10087 0.25553 0.15869 0.53568 0.17188 0.84379 0.0135 0.32437 0.02344 0.6495 0.02344 0.98049v6.3206a0.18755 0.18755 0 0 0 0.18751 0.18751h3.0939a0.18755 0.18755 0 0 0 0.18751-0.18751v-6.2736c0-0.33949 0.02444-0.67616 0.07422-1.0079 0.04774-0.32147 0.14114-0.60426 0.28127-0.85159 0.1373-0.24183 0.32625-0.43419 0.57034-0.58596 0.23037-0.14268 0.54554-0.22267 0.95707-0.22267 0.41465 0 0.72702 0.06944 0.94143 0.19141 0.22617 0.12948 0.38953 0.29991 0.50392 0.51564 0.11706 0.22135 0.19111 0.48696 0.21877 0.8008 0.02902 0.32779 0.04298 0.67806 0.04298 1.0508v6.383a0.18755 0.18755 0 0 0 0.18751 0.18751h3.0939a0.18755 0.18755 0 0 0 0.18751-0.18751v-7.5392c0-0.74392-0.10228-1.3859-0.31641-1.9297-0.21286-0.53818-0.51516-0.98297-0.90238-1.3243-0.38515-0.33879-0.84735-0.58636-1.3789-0.7383-0.52727-0.15048-1.0963-0.22657-1.7071-0.22657-0.81459 0-1.5344 0.19873-2.1407 0.59768-0.52474 0.34521-0.91931 0.7614-1.2539 1.2071-0.31507-0.60134-0.70432-1.1095-1.2618-1.3711-0.61434-0.28787-1.2955-0.43361-2.0313-0.43361z" stroke-width="2.0001"/>
</svg>
