<?xml version="1.0" encoding="UTF-8"?>
<svg width="32" height="32" version="1.1" viewBox="0 0 32 32" xmlns="http://www.w3.org/2000/svg">
 <path d="m3.0977 1.5488c-1.7032 0-3.0977 1.3925-3.0977 3.0957 0 1.7032 1.3944 3.0977 3.0977 3.0977h25.805c1.7032 0 3.0977-1.3944 3.0977-3.0977 0-1.7032-1.3944-3.0957-3.0977-3.0957zm0 11.354c-1.7032 0-3.0977 1.3944-3.0977 3.0977s1.3944 3.0977 3.0977 3.0977h25.805c1.7032 0 3.0977-1.3944 3.0977-3.0977s-1.3944-3.0977-3.0977-3.0977zm0 11.355c-1.7032 0-3.0977 1.3944-3.0977 3.0977s1.3944 3.0957 3.0977 3.0957h25.805c1.7032 0 3.0977-1.3925 3.0977-3.0957s-1.3944-3.0977-3.0977-3.0977z"/>
</svg>
