<?xml version="1.0" encoding="UTF-8"?>
<svg width="32" height="32" version="1.1" viewBox="0 0 32 32" xmlns="http://www.w3.org/2000/svg">
 <path d="m16 1.5e-6a16 16 0 0 0-16 16 16 16 0 0 0 16 16 16 16 0 0 0 16-16 16 16 0 0 0-16-16zm6.6806 6.3249c0.91696 0 1.6656 0.74861 1.6656 1.6656s-0.74861 1.6656-1.6656 1.6656c-0.89824 0-1.6278-0.71111-1.6652-1.5906l-3.462-0.7299-1.0669 4.9963c2.4328 0.09357 4.6411 0.8424 6.2317 1.9839 0.4117-0.4117 0.97303-0.65497 1.6093-0.65497 1.2912 0 2.3392 1.0479 2.3392 2.3392 0 0.95439-0.57997 1.7778-1.3472 2.152 0.0374 0.22456 0.0559 0.44898 0.0559 0.69225 0 3.593-4.1732 6.4934-9.3381 6.4934-5.1649 0-9.3377-2.9004-9.3377-6.4934 0-0.24327 0.0185-0.48669 0.05592-0.71126-0.82339-0.37427-1.3849-1.1786-1.3849-2.133 0-1.2912 1.048-2.3392 2.3392-2.3392 0.61754 0 1.198 0.26199 1.6096 0.65497 1.6094-1.1789 3.836-1.9091 6.3249-1.9839l1.1791-5.5764c0.0374-0.11228 0.0936-0.20592 0.18714-0.26206 0.0936-0.05614 0.2057-0.075 0.31798-0.05629l3.8739 0.82346c0.26199-0.5614 0.8231-0.93567 1.4781-0.93567zm-10.348 9.6751c-0.91696 0-1.6656 0.74825-1.6656 1.6652s0.74861 1.6656 1.6656 1.6656 1.6656-0.74861 1.6656-1.6656-0.74861-1.6652-1.6656-1.6652zm7.3355 0c-0.91696 0-1.6656 0.74825-1.6656 1.6652s0.74861 1.6656 1.6656 1.6656 1.6656-0.74861 1.6656-1.6656-0.74861-1.6652-1.6656-1.6652zm-7.2887 5.3191c-0.11228 0-0.22463 0.0422-0.30884 0.12646-0.16842 0.16842-0.16842 0.44891 0 0.61733 1.1228 1.1228 3.3122 1.2164 3.9485 1.2164s2.8069-0.0748 3.9485-1.2164c0.16842-0.16842 0.16864-0.43019 0.0376-0.61733-0.16842-0.16842-0.44927-0.16842-0.61769 0-0.72983 0.71111-2.2457 0.97296-3.3498 0.97296-1.1041 0-2.6383-0.26185-3.3494-0.97296-0.08421-0.0842-0.19656-0.12646-0.30884-0.12646z"/>
</svg>
